<svg width="72" height="72" viewBox="0 0 72 72" fill="none" xmlns="http://www.w3.org/2000/svg">
<g id="account_circle">
<mask id="mask0_15_138" style="mask-type:alpha" maskUnits="userSpaceOnUse" x="0" y="0" width="72" height="72">
<rect id="Bounding box" x="0.5" y="0.5" width="71" height="71" fill="#D9D9D9"/>
</mask>
<g mask="url(#mask0_15_138)">
<path id="account_circle_2" d="M17.426 51.4122L17.7336 51.7725L18.11 51.4847C20.5817 49.5945 23.3461 48.1027 26.4057 47.01C29.4562 45.9205 32.6534 45.375 36 45.375C39.3466 45.375 42.5437 45.9205 45.5943 47.01C48.6539 48.1027 51.4182 49.5945 53.89 51.4847L54.2664 51.7725L54.574 51.4122C56.3386 49.3451 57.7114 47.0016 58.6926 44.385C59.6764 41.7615 60.1667 38.9652 60.1667 36C60.1667 29.3106 57.8096 23.5994 53.1051 18.8949C48.4007 14.1905 42.6894 11.8334 36 11.8334C29.3106 11.8334 23.5993 14.1905 18.8949 18.8949C14.1904 23.5994 11.8333 29.3106 11.8333 36C11.8333 38.9652 12.3236 41.7615 13.3073 44.385C14.2886 47.0016 15.6614 49.3451 17.426 51.4122ZM36 38.4584C33.2191 38.4584 30.8947 37.5095 28.9947 35.6095C27.0947 33.7095 26.1458 31.3851 26.1458 28.6042C26.1458 25.8233 27.0947 23.4989 28.9947 21.5989C30.8947 19.6989 33.2191 18.75 36 18.75C38.7809 18.75 41.1053 19.6989 43.0053 21.5989C44.9053 23.4989 45.8542 25.8233 45.8542 28.6042C45.8542 31.3851 44.9053 33.7095 43.0053 35.6095C41.1053 37.5095 38.7809 38.4584 36 38.4584ZM36 65.0834C31.9727 65.0834 28.1946 64.3195 24.6606 62.7946C21.1169 61.2654 18.0393 59.1927 15.4233 56.5767C12.8073 53.9607 10.7346 50.8831 9.20543 47.3394C7.68048 43.8054 6.91666 40.0273 6.91666 36C6.91666 31.9727 7.68048 28.1946 9.20543 24.6606C10.7346 21.1169 12.8073 18.0394 15.4233 15.4234C18.0393 12.8074 21.1169 10.7346 24.6606 9.20546C28.1946 7.68051 31.9727 6.91669 36 6.91669C40.0273 6.91669 43.8054 7.68051 47.3394 9.20546C50.8831 10.7346 53.9607 12.8074 56.5766 15.4234C59.1926 18.0394 61.2654 21.1169 62.7946 24.6606C64.3195 28.1946 65.0833 31.9727 65.0833 36C65.0833 40.0273 64.3195 43.8054 62.7946 47.3394C61.2654 50.8831 59.1926 53.9607 56.5766 56.5767C53.9607 59.1927 50.8831 61.2654 47.3394 62.7946C43.8054 64.3195 40.0273 65.0834 36 65.0834Z" fill="#95BDFF" stroke="black"/>
</g>
</g>
</svg>
