<svg width="71" height="72" viewBox="0 0 71 72" fill="none" xmlns="http://www.w3.org/2000/svg">
<g id="Frame 156">
<g id="extension">
<mask id="mask0_34_440" style="mask-type:alpha" maskUnits="userSpaceOnUse" x="8" y="8" width="55" height="56">
<rect id="Bounding box" x="8" y="8.5" width="55" height="55" fill="#D9D9D9"/>
</mask>
<g mask="url(#mask0_34_440)">
<path id="extension_2" d="M28.1667 56.625H19.4583C18.1979 56.625 17.1189 56.1762 16.2214 55.2786C15.3238 54.3811 14.875 53.3021 14.875 52.0417V43.3333C16.7083 43.3333 18.3125 42.7509 19.6875 41.5859C21.0625 40.421 21.75 38.941 21.75 37.1458C21.75 35.3507 21.0625 33.8707 19.6875 32.7057C18.3125 31.5408 16.7083 30.9583 14.875 30.9583V22.25C14.875 20.9896 15.3238 19.9106 16.2214 19.013C17.1189 18.1155 18.1979 17.6667 19.4583 17.6667H28.625C28.625 16.0625 29.1788 14.7066 30.2865 13.599C31.3941 12.4913 32.75 11.9375 34.3542 11.9375C35.9583 11.9375 37.3142 12.4913 38.4219 13.599C39.5295 14.7066 40.0833 16.0625 40.0833 17.6667H49.25C50.5104 17.6667 51.5894 18.1155 52.487 19.013C53.3846 19.9106 53.8333 20.9896 53.8333 22.25V31.4167C55.4375 31.4167 56.7934 31.9705 57.901 33.0781C59.0087 34.1858 59.5625 35.5417 59.5625 37.1458C59.5625 38.75 59.0087 40.1059 57.901 41.2135C56.7934 42.3212 55.4375 42.875 53.8333 42.875V52.0417C53.8333 53.3021 53.3846 54.3811 52.487 55.2786C51.5894 56.1762 50.5104 56.625 49.25 56.625H40.5417C40.5417 54.7153 39.9401 53.092 38.737 51.7552C37.5339 50.4184 36.0729 49.75 34.3542 49.75C32.6354 49.75 31.1745 50.4184 29.9714 51.7552C28.7682 53.092 28.1667 54.7153 28.1667 56.625ZM19.4583 52.0417H24.3281C25.2448 49.5208 26.7153 47.7448 28.7396 46.7135C30.7639 45.6823 32.6354 45.1667 34.3542 45.1667C36.0729 45.1667 37.9444 45.6823 39.9688 46.7135C41.9931 47.7448 43.4635 49.5208 44.3802 52.0417H49.25V38.2917H53.8333C54.1389 38.2917 54.4063 38.1771 54.6354 37.9479C54.8646 37.7188 54.9792 37.4514 54.9792 37.1458C54.9792 36.8403 54.8646 36.5729 54.6354 36.3438C54.4063 36.1146 54.1389 36 53.8333 36H49.25V22.25H35.5V17.6667C35.5 17.3611 35.3854 17.0938 35.1563 16.8646C34.9271 16.6354 34.6597 16.5208 34.3542 16.5208C34.0486 16.5208 33.7813 16.6354 33.5521 16.8646C33.3229 17.0938 33.2083 17.3611 33.2083 17.6667V22.25H19.4583V27.2917C21.5208 28.0556 23.1823 29.3351 24.4427 31.1302C25.7031 32.9253 26.3333 34.9306 26.3333 37.1458C26.3333 39.3229 25.7031 41.309 24.4427 43.1042C23.1823 44.8993 21.5208 46.1979 19.4583 47V52.0417Z" fill="#1C1B1F"/>
</g>
</g>
</g>
</svg>
