<svg width="71" height="72" viewBox="0 0 71 72" fill="none" xmlns="http://www.w3.org/2000/svg">
<g id="Frame 156">
<g id="compost">
<mask id="mask0_34_444" style="mask-type:alpha" maskUnits="userSpaceOnUse" x="8" y="8" width="55" height="56">
<rect id="Bounding box" x="8" y="8.5" width="55" height="55" fill="#D9D9D9"/>
</mask>
<g mask="url(#mask0_34_444)">
<path id="compost_2" d="M35.5003 57.7708C32.483 57.7708 29.6566 57.1979 27.0212 56.0521C24.3857 54.9062 22.0845 53.3498 20.1175 51.3828C18.1505 49.4158 16.5941 47.1146 15.4482 44.4792C14.3024 41.8438 13.7295 39.0174 13.7295 36C13.7295 32.9826 14.3024 30.1563 15.4482 27.5208C16.5941 24.8854 18.1505 22.5842 20.1175 20.6172C22.0845 18.6502 24.3857 17.0938 27.0212 15.9479C29.6566 14.8021 32.483 14.2292 35.5003 14.2292V8.5L44.667 17.6667L35.5003 26.8333V21.1042C31.3753 21.1042 27.8614 22.5556 24.9587 25.4583C22.0559 28.3611 20.6045 31.875 20.6045 36C20.6045 38.5208 21.187 40.8602 22.3519 43.0182C23.5168 45.1762 25.0732 46.9236 27.0212 48.2604C27.6323 47.191 28.5394 46.2839 29.7425 45.5391C30.9456 44.7943 32.3302 44.3264 33.8962 44.1354C33.7816 43.3333 33.6288 42.5312 33.4378 41.7292C33.2469 40.9271 33.0177 40.1823 32.7503 39.4948C32.3302 39.8385 31.8719 40.1059 31.3753 40.2969C30.8788 40.4878 30.3441 40.5833 29.7712 40.5833C28.5107 40.5833 27.4317 40.1346 26.5342 39.237C25.6366 38.3394 25.1878 37.2604 25.1878 36V33.7083C25.1878 33.059 25.0828 32.4479 24.8727 31.875C24.6627 31.3021 24.3857 30.7674 24.042 30.2708C25.9517 30.2326 27.6514 30.4045 29.1409 30.7865C30.4396 31.1302 31.6236 31.6936 32.693 32.4766C33.7625 33.2596 34.3163 34.434 34.3545 36C34.3545 36.3438 34.3258 36.6589 34.2686 36.9453C34.2113 37.2318 34.1062 37.5278 33.9534 37.8333C33.4569 37.4514 32.9604 37.1076 32.4639 36.8021C31.9673 36.4965 31.4517 36.2292 30.917 36C31.5663 36.4965 32.3111 37.2604 33.1514 38.2917C33.9916 39.3229 34.7746 40.5451 35.5003 41.9583C36.2642 40.0868 37.2191 38.2439 38.3649 36.4297C39.5107 34.6155 40.8475 32.9444 42.3753 31.4167C41.4969 32.0278 40.6566 32.6771 39.8545 33.3646C39.0524 34.0521 38.2694 34.7778 37.5055 35.5417C37.2382 35.1215 37.0281 34.6536 36.8753 34.138C36.7225 33.6224 36.6462 33.0972 36.6462 32.5625C36.6462 30.9583 37.2 29.6024 38.3076 28.4948C39.4153 27.3872 40.7712 26.8333 42.3753 26.8333H44.667C45.5455 26.8333 46.2712 26.7188 46.8441 26.4896C47.417 26.2604 47.8944 25.9931 48.2764 25.6875C48.6965 25.3438 49.0212 24.9618 49.2503 24.5417C49.4031 27.1007 49.2694 29.3924 48.8493 31.4167C48.5055 33.1354 47.8562 34.7109 46.9014 36.1432C45.9465 37.5755 44.4378 38.2917 42.3753 38.2917C41.8024 38.2917 41.2581 38.2153 40.7425 38.0625C40.2269 37.9097 39.759 37.6997 39.3389 37.4323C39.0715 38.158 38.7659 39.1224 38.4222 40.3255C38.0784 41.5286 37.8111 42.8177 37.6201 44.1927C39.0715 44.4601 40.351 44.9566 41.4587 45.6823C42.5663 46.408 43.4066 47.2674 43.9795 48.2604C45.9274 46.9236 47.4838 45.1858 48.6488 43.0469C49.8137 40.908 50.3962 38.559 50.3962 36H57.2712C57.2712 39.0174 56.6982 41.8438 55.5524 44.4792C54.4066 47.1146 52.8501 49.4158 50.8831 51.3828C48.9161 53.3498 46.6149 54.9062 43.9795 56.0521C41.3441 57.1979 38.5177 57.7708 35.5003 57.7708Z" fill="#1C1B1F"/>
</g>
</g>
</g>
</svg>
