<svg width="30" height="55" viewBox="0 0 30 55" fill="none" xmlns="http://www.w3.org/2000/svg">
<path id="military_tech" d="M4.55309 24.6478L14.0749 30.122L14.7075 30.4857L15.34 30.122L24.8618 24.6478C25.4358 24.3061 25.8562 23.8757 26.1602 23.3446L4.55309 24.6478ZM4.55309 24.6478C3.97912 24.3061 3.55874 23.8756 3.2547 23.3446C2.96078 22.8311 2.79341 22.2226 2.79341 21.4672V2.5H26.6215V21.4672C26.6215 22.2226 26.4542 22.8311 26.1602 23.3446L4.55309 24.6478ZM18.2327 39.8463H22.9884L19.1717 42.4767L17.9451 43.3221L18.4039 44.7394L19.9897 49.6386L15.8906 46.6311L14.7075 45.763L13.5244 46.6311L9.42527 49.6386L11.0111 44.7394L11.4698 43.3221L10.2432 42.4767L6.42649 39.8463H11.1822H12.647L13.089 38.4498L14.7075 33.3358L16.3259 38.4498L16.7679 39.8463H18.2327ZM11.9991 4.22079H9.99914V6.22079V24.4916V25.6422L10.9937 26.2206L13.702 27.7956L14.7075 28.3802L15.7129 27.7956L18.4212 26.2206L19.4158 25.6422V24.4916V6.22079V4.22079H17.4158H11.9991Z" stroke="black" stroke-width="4"/>
</svg>
