<svg width="72" height="72" viewBox="0 0 72 72" fill="none" xmlns="http://www.w3.org/2000/svg">
<g id="package">
<mask id="mask0_15_198" style="mask-type:alpha" maskUnits="userSpaceOnUse" x="0" y="0" width="72" height="72">
<rect id="Bounding box" x="0.5" y="0.5" width="71" height="71" fill="#D9D9D9"/>
</mask>
<g mask="url(#mask0_15_198)">
<path id="package_2" d="M20.7083 50.7917V51.2917H21.2083H36H36.5V50.7917V44.875V44.375H36H21.2083H20.7083V44.875V50.7917ZM23.6667 38.9583V39.7673L24.3903 39.4055L36 33.6007L47.6097 39.4055L48.3333 39.7673V38.9583V15.2917V14.7917H47.8333H24.1667H23.6667V15.2917V38.9583ZM15.2917 62.125C13.7982 62.125 12.5322 61.5991 11.4666 60.5334C10.4009 59.4678 9.875 58.2018 9.875 56.7083V15.2917C9.875 13.7982 10.4009 12.5322 11.4666 11.4666C12.5322 10.4009 13.7982 9.875 15.2917 9.875H56.7083C58.2018 9.875 59.4678 10.4009 60.5334 11.4666C61.5991 12.5322 62.125 13.7982 62.125 15.2917V56.7083C62.125 58.2018 61.5991 59.4678 60.5334 60.5334C59.4678 61.5991 58.2018 62.125 56.7083 62.125H15.2917Z" fill="#FAEDCD" stroke="black"/>
</g>
</g>
</svg>
