<svg width="60" height="60" viewBox="0 0 60 60" fill="none" xmlns="http://www.w3.org/2000/svg">
<path id="sell" d="M57.4912 28.689L57.4917 28.6895C58.5289 29.7267 59.0463 30.991 59.0463 32.5146C59.0463 34.0382 58.5289 35.3025 57.4917 36.3397L36.3396 57.4918C35.304 58.5274 34.028 59.0464 32.4776 59.0464C30.9271 59.0464 29.6511 58.5274 28.6155 57.4918L2.58217 31.4585C2.08655 30.9628 1.68987 30.3751 1.39312 29.6903C1.10091 29.016 0.953613 28.295 0.953613 27.5224V6.37034C0.953613 4.87692 1.47953 3.61091 2.54519 2.54525C3.61085 1.47959 4.87686 0.953674 6.37028 0.953674H27.5224C28.295 0.953674 29.0159 1.10097 29.6902 1.39318C30.3749 1.68985 30.9625 2.08639 31.458 2.58182C31.4581 2.58196 31.4583 2.58209 31.4584 2.58223L57.4912 28.689ZM13.7661 18.7037C15.1298 18.7037 16.3052 18.2206 17.2629 17.263C18.2206 16.3053 18.7036 15.1299 18.7036 13.7662C18.7036 12.4024 18.2206 11.2271 17.2629 10.2694C16.3052 9.31171 15.1298 8.82867 13.7661 8.82867C12.4024 8.82867 11.227 9.31171 10.2693 10.2694C9.31165 11.2271 8.82861 12.4024 8.82861 13.7662C8.82861 15.1299 9.31165 16.3053 10.2693 17.263C11.227 18.2206 12.4024 18.7037 13.7661 18.7037Z" fill="#B2A4FF" stroke="black"/>
</svg>
