<svg width="71" height="72" viewBox="0 0 71 72" fill="none" xmlns="http://www.w3.org/2000/svg">
<g id="Frame 156">
<path id="volunteer_activism" d="M46.2112 42.7318C46.4094 43.029 46.5737 43.3332 46.7047 43.6463H44.3333C42.6996 43.6463 41.4876 43.5857 40.6588 43.4796C39.8058 43.3704 39.1091 43.2125 38.5511 43.0219L38.2368 42.9146H37.9048H34.6905H32.6905V44.9146V47.0488V49.0488H34.6905H35.8016C36.8916 49.4628 37.9438 49.7505 38.9494 49.8848C39.9734 50.0216 41.1372 50.0854 42.4286 50.0854H53.8571C56.3728 50.0854 57.6172 50.5289 58.1287 50.9461C58.6898 51.4038 59 52.0001 59 52.9634V53.9427L41.9191 59.4107L27.2857 55.2348V35.4512H29.5614L43.98 40.9305L43.98 40.9306L43.9923 40.9352C44.8875 41.2686 45.619 41.844 46.2112 42.7318ZM46.7263 35.5991C45.3786 34.3326 44.0589 33.0834 42.7672 31.8515C41.0868 30.2488 39.6112 28.6869 38.3361 27.1662C37.076 25.6634 36.0984 24.2425 35.3826 22.9042C34.7108 21.6482 34.4286 20.5375 34.4286 19.5488C34.4286 17.7629 34.9998 16.3633 36.1216 15.2141C37.2409 14.0675 38.5845 13.5 40.2857 13.5C41.2562 13.5 42.1427 13.7071 42.9715 14.1164C43.8404 14.5455 44.5745 15.1185 45.1896 15.8431L46.7143 17.6393L48.239 15.8431C48.854 15.1185 49.5882 14.5455 50.4571 14.1164C51.2858 13.7071 52.1724 13.5 53.1429 13.5C54.8441 13.5 56.1876 14.0675 57.3069 15.2141C58.4287 16.3633 59 17.7629 59 19.5488C59 20.5375 58.7178 21.6482 58.046 22.9042C57.3301 24.2425 56.3526 25.6634 55.0925 27.1662C53.8143 28.6905 52.3456 30.2551 50.6828 31.8595C49.4092 33.0882 48.0904 34.3348 46.7263 35.5991ZM13 58.2805V35.4512H18.5238V58.2805H13Z" stroke="black" stroke-width="4"/>
</g>
</svg>
